<svg version="1.2" baseProfile="tiny" xmlns="http://www.w3.org/2000/svg" width="264" height="80" viewBox="0 0 264 80"><path fill="#FFF" d="M7 73V7h52.171L73 20.829V73z"/><path fill="#231F20" d="M58.343 9L71 21.657V71H9V9h49.343M60 5H5v70h70V20L60 5z"/><path stroke="#000" stroke-linecap="round" stroke-linejoin="round" stroke-miterlimit="10" d="M31.199 44.181c1.522-3.052 3.253-6.49 4.637-9.941l.548-1.363c-1.809-7.041-2.894-12.691-1.924-16.345.259-.954 1.338-1.532 2.491-1.532l.704.011h.129c1.579-.025 2.322 2.029 2.406 2.829.139 1.33-.463 3.581-.463 3.581 0-.909.035-2.377-.526-3.646-.652-1.467-1.275-2.344-1.834-2.482-.282.193-.557.593-.651 1.361-.195 1.078-.252 2.437-.252 3.139 0 2.476.476 5.745 1.413 9.115.176-.521.332-1.022.456-1.493.192-.74 1.414-5.647 1.414-5.647s-.308 6.533-.738 8.509c-.091.417-.193.832-.298 1.254 1.544 4.416 4.033 8.356 7.002 11.193 1.171 1.118 2.649 2.021 4.049 2.844 3.057-.447 5.871-.658 8.217-.632 3.115.042 5.401.514 6.327 1.447.454.454.638 1 .694 1.615.014.239-.1.8-.133.94.033-.171.033-1.007-2.467-1.826-1.969-.643-5.654-.624-10.076-.141 5.114 2.56 10.098 3.831 11.676 3.067.386-.191.854-.847.854-.847s-.278 1.293-.478 1.617c-.255.35-.755.731-1.23.861-2.494.681-8.986-.896-14.646-4.203-6.323.953-13.267 2.712-18.833 4.58-5.47 9.807-9.583 14.311-12.928 12.598l-1.23-.635c-.5-.291-.577-1.005-.461-1.584.391-1.952 2.783-4.891 7.59-7.827.518-.322 2.821-1.567 2.821-1.567s-1.706 1.688-2.105 2.021c-3.836 3.216-6.668 7.265-6.597 8.831l.014.137c3.257-.477 8.145-7.262 14.428-19.839m1.991 1.043a256.75 256.75 0 0 1-3.022 5.618c5.239-2.246 10.877-3.683 16.244-4.703a27.388 27.388 0 0 1-2.08-1.62c-2.956-2.56-5.208-5.754-6.842-9.114a78.824 78.824 0 0 1-4.3 9.819"/><g><path d="M138.583 19.896c.669 1.815 1.004 3.74 1.004 5.772 0 3.629-.977 6.845-2.929 9.649-3.515 5.223-9.653 7.834-18.411 7.834-2.008 0-5.469-.219-10.377-.66-.669.165-1.354.358-2.051.577-.698.22-1.242.66-1.632 1.32l-.669 17.15c-.167.88.084 1.692.753 2.435.67.741 1.338 1.473 2.008 2.185a7.83 7.83 0 0 0 1.255.083c.391 0 1.059-.027 2.009-.083a40.014 40.014 0 0 1 2.092-.082c2.12 0 3.291.771 3.514 2.309-.836 1.266-2.231 1.786-4.185 1.566-2.79-.329-6.987-.384-12.594-.165-5.607.221-9.749.137-12.428-.247-1.061-.768-1.228-1.566-.502-2.392.725-.824 1.729-1.235 3.013-1.235.446 0 1.073.056 1.883.164.809.109 1.409.165 1.8.165 1.729 0 2.789-1.074 3.179-3.218v-4.45c0-2.477.139-6.144.418-11.01.279-4.865.419-8.535.419-11.009 0-1.594-.056-3.078-.167-4.453-.167-.769-.251-1.704-.251-2.804 0-.769.07-2.033.21-3.793.138-1.758.209-3.078.209-3.958 0-4.618-1.898-7.229-5.69-7.834-.392 0-.936.151-1.633.453-.698.304-1.325.399-1.882.289-.615-.384-.921-.878-.921-1.484 0-.384.306-1.209.921-2.474 16.235.441 28.118.495 35.65.165 7.644 1.926 12.972 5.004 15.985 9.235zm-9.708.661c-1.284-2.474-3.459-4.151-6.527-5.031-1.898-.495-4.715-.742-8.453-.742-.448 0-1.213-.082-2.301-.248-1.088-.165-1.912-.247-2.469-.247-1.954 0-3.321.853-4.102 2.556-.836 9.018-1.003 16.136-.501 21.358l.92 1.237h11.382c4.574-.165 8.172-1.072 10.795-2.721 1.451-2.309 2.176-5.279 2.176-8.907a29.35 29.35 0 0 0-.92-7.255z"/><path d="M200.226 42.996c-.334 7.386-3.348 13.837-9.039 19.35-2.734 2.7-6.138 4.604-10.209 5.704-3.125.883-7.06 1.378-11.8 1.488-4.018.111-8.034.195-12.051.248-2.79-.219-5.579-.33-8.369-.33s-5.607.111-8.452.33a35.55 35.55 0 0 1-1.13-.675c-.363-.224-.543-.535-.543-.928 0-.171.027-.338.083-.507.602-.958 1.754-1.436 3.455-1.436H143.898c1.755 0 2.88-.549 3.374-1.649.769-2.252 1.153-4.782 1.153-7.586 0-1.76-.114-3.6-.335-5.525.335-4.342.39-10.293.167-17.853-.223-7.558-.167-13.318.168-17.276-1.004-1.044-2.567-1.787-4.687-2.227-.28 0-.767.124-1.464.372-.698.247-1.243.371-1.632.371a2.35 2.35 0 0 1-1.59-.577c-.669-.605-1.004-1.237-1.004-1.896 0-.329.111-.605.334-.824l1.171-1.238c1.059.111 2.454.082 4.185-.083 2.119-.164 3.459-.247 4.016-.247 1.06 0 1.981.111 2.763.33a49.86 49.86 0 0 0 4.268.165c1.283 0 3.235-.083 5.858-.248 2.622-.164 4.574-.247 5.858-.247 5.523 0 9.986.854 13.39 2.563 1.172-.11 2.581.374 4.226 1.449 1.646 1.074 2.972 1.612 3.976 1.612 4.406 2.757 7.671 6.754 9.79 11.991 1.84 4.629 2.621 9.756 2.343 15.379zm-12.638 13.236c2.456-4.853 3.683-10.231 3.683-16.132s-1.228-11.084-3.683-15.553c-3.905-6.948-11.213-10.423-21.925-10.423-1.953 0-3.989.11-6.108.331-.726.387-1.646 1.186-2.762 2.399l-.335 33.835c-.055 4.083-.028 6.618.085 7.611.221 2.923.947 5.323 2.175 7.195 3.012.223 5.607.333 7.783.333 10.766.001 17.796-3.196 21.087-9.596z"/><path d="M252.88 23.69c-1.341.056-2.978-.933-4.905-2.967-1.931-2.035-3.565-3.106-4.908-3.216-1.51-1.265-3.69-2.171-6.541-2.722a320.41 320.41 0 0 1-7.212-1.236c-.729.33-1.762.495-3.104.495H223.022c-3.635 0-6.011.925-7.128 2.776-.447 5.606-.672 12.301-.672 20.084l1.933 1.796 10.413-.165c3.806-.495 6.606-2.089 8.398-4.783.279-1.155.979-2.749 2.098-4.782l1.091.495.338 21.604c-.169.33-.533.716-1.09 1.154-.893-.329-1.505-1.154-1.842-2.473a72.398 72.398 0 0 1-.919-3.297c-.949-1.98-2.652-3.409-5.105-4.289a287.832 287.832 0 0 1-6.695-1.567 132.8 132.8 0 0 1-4.436.415c-1.896.165-3.153.772-3.765 1.818-.447 1.876-.67 4.136-.67 6.784 0 1.6.098 3.999.293 7.197.197 3.2.296 5.545.296 7.031.45 1.932 1.827 2.896 4.131 2.896h3.037c1.517 0 2.585.354 3.205 1.061.056.201.083.379.083.53 0 .404-.223.683-.668.834-.448.151-.895.276-1.339.378h-3.766c-1.563 0-3.807.057-6.737.166-2.929.106-5.09.164-6.484.164-2.958 0-5.637-.219-8.034-.659-.114-.056-.168-.632-.168-1.732.557-.494 1.283-.741 2.176-.741.39 0 .976.055 1.758.165.779.109 1.338.164 1.673.164 1.283 0 2.176-.604 2.679-1.815l1.088-2.392c.055-6.047-.029-13.906-.251-23.583-.28-13.139-.419-21.028-.419-23.667-.501-.99-1.562-1.485-3.18-1.485h-3.012c-1.842 0-2.624-.947-2.343-2.842 1.059-.578 2.397-.869 4.017-.869.724 0 1.758.07 3.096.206 1.339.139 2.315.206 2.929.206.948 0 1.757-.109 2.427-.329.335-.219.696-.33 1.088-.33.223 0 .613.111 1.171.33.557.22.976.329 1.255.329h34.061c1.395.923 2.259 2.687 2.592 5.293.502 3.528.921 5.646 1.256 6.35v1.22z"/></g></svg>