<svg version="1.2" baseProfile="tiny" xmlns="http://www.w3.org/2000/svg" width="80" height="80" viewBox="0 0 80 80"><path fill="#FFF" d="M7 73V7h52.171L73 20.829V73z"/><path fill="#231F20" d="M58.343 9L71 21.657V71H9V9h49.343M60 5H5v70h70V20L60 5z"/><g><path stroke="#000" stroke-linecap="round" stroke-linejoin="round" stroke-miterlimit="10" d="M31.199 44.181c1.522-3.052 3.253-6.49 4.637-9.941l.548-1.363c-1.809-7.041-2.894-12.691-1.924-16.345.259-.954 1.338-1.532 2.491-1.532l.704.011h.129c1.579-.025 2.322 2.029 2.406 2.829.139 1.33-.463 3.581-.463 3.581 0-.909.035-2.377-.526-3.646-.652-1.467-1.275-2.344-1.834-2.482-.282.193-.557.593-.651 1.361-.195 1.078-.252 2.437-.252 3.139 0 2.476.476 5.745 1.413 9.115.176-.521.332-1.022.456-1.493.192-.74 1.414-5.647 1.414-5.647s-.308 6.533-.738 8.509c-.091.417-.193.832-.298 1.254 1.544 4.416 4.033 8.356 7.002 11.193 1.171 1.118 2.649 2.021 4.049 2.844 3.057-.447 5.871-.658 8.217-.632 3.115.042 5.401.514 6.327 1.447.454.454.638 1 .694 1.615.014.239-.1.8-.133.94.033-.171.033-1.007-2.467-1.826-1.969-.643-5.654-.624-10.076-.141 5.114 2.56 10.098 3.831 11.676 3.067.386-.191.854-.847.854-.847s-.278 1.293-.478 1.617c-.255.35-.755.731-1.23.861-2.494.681-8.986-.896-14.646-4.203-6.323.953-13.267 2.712-18.833 4.58-5.47 9.807-9.583 14.311-12.928 12.598l-1.23-.635c-.5-.291-.577-1.005-.461-1.584.391-1.952 2.783-4.891 7.59-7.827.518-.322 2.821-1.567 2.821-1.567s-1.706 1.688-2.105 2.021c-3.836 3.216-6.668 7.265-6.597 8.831l.014.137c3.257-.477 8.145-7.262 14.428-19.839m1.991 1.043a256.75 256.75 0 0 1-3.022 5.618c5.239-2.246 10.877-3.683 16.244-4.703a27.388 27.388 0 0 1-2.08-1.62c-2.956-2.56-5.208-5.754-6.842-9.114a78.824 78.824 0 0 1-4.3 9.819"/></g></svg>