<svg version="1.2" baseProfile="tiny" xmlns="http://www.w3.org/2000/svg" width="240" height="80" viewBox="0 0 240 80"><path fill="#FFF" d="M7.5 72.5v-65h51.464L72.5 21.036V72.5z"/><path fill="#231F20" d="M57.929 10L70 22.071V70H10V10h47.929M60 5H5v70h70V20L60 5z"/><path stroke="#000" stroke-width="2" stroke-linecap="round" stroke-linejoin="round" stroke-miterlimit="10" d="M31.199 44.181c1.522-3.052 3.253-6.49 4.637-9.941l.548-1.363c-1.809-7.041-2.894-12.691-1.924-16.345.259-.954 1.338-1.532 2.491-1.532l.704.011h.129c1.579-.025 2.322 2.029 2.406 2.829.139 1.33-.463 3.581-.463 3.581 0-.909.035-2.377-.526-3.646-.652-1.467-1.275-2.344-1.834-2.482-.282.193-.557.593-.651 1.361-.195 1.078-.252 2.437-.252 3.139 0 2.476.476 5.745 1.413 9.115.176-.521.332-1.022.456-1.493.192-.74 1.414-5.647 1.414-5.647s-.308 6.533-.738 8.509c-.091.417-.193.832-.298 1.254 1.544 4.416 4.033 8.356 7.002 11.193 1.171 1.118 2.649 2.021 4.049 2.844 3.057-.447 5.871-.658 8.217-.632 3.115.042 5.401.514 6.327 1.447.454.454.638 1 .694 1.615.014.239-.1.8-.133.94.033-.171.033-1.007-2.467-1.826-1.969-.643-5.654-.624-10.076-.141 5.114 2.56 10.098 3.831 11.676 3.067.386-.191.854-.847.854-.847s-.278 1.293-.478 1.617c-.255.35-.755.731-1.23.861-2.494.681-8.986-.896-14.646-4.203-6.323.953-13.267 2.712-18.833 4.58-5.47 9.807-9.583 14.311-12.928 12.598l-1.23-.635c-.5-.291-.577-1.005-.461-1.584.391-1.952 2.783-4.891 7.59-7.827.518-.322 2.821-1.567 2.821-1.567s-1.706 1.688-2.105 2.021c-3.836 3.216-6.668 7.265-6.597 8.831l.014.137c3.257-.477 8.145-7.262 14.428-19.839m1.991 1.043a256.75 256.75 0 0 1-3.022 5.618c5.239-2.246 10.877-3.683 16.244-4.703a27.388 27.388 0 0 1-2.08-1.62c-2.956-2.56-5.208-5.754-6.842-9.114a78.824 78.824 0 0 1-4.3 9.819"/><g><path d="M129.62 23.224c.557 1.511.836 3.114.836 4.808 0 3.022-.813 5.701-2.439 8.036-2.927 4.35-8.04 6.525-15.334 6.525-1.673 0-4.555-.183-8.643-.549-.558.137-1.127.298-1.708.48-.582.183-1.035.549-1.359 1.099l-.558 14.285c-.139.733.07 1.409.627 2.027a131.23 131.23 0 0 0 1.672 1.819c.279.046.628.069 1.046.069a33.4 33.4 0 0 0 1.673-.069 34.19 34.19 0 0 1 1.743-.068c1.765 0 2.741.642 2.927 1.923-.697 1.054-1.859 1.488-3.485 1.305-2.324-.274-5.82-.319-10.49-.138-4.67.184-8.12.114-10.351-.205-.883-.641-1.022-1.306-.418-1.992.603-.687 1.439-1.029 2.509-1.029.372 0 .894.046 1.568.137.673.092 1.173.138 1.499.138 1.44 0 2.323-.895 2.649-2.68v-3.707c0-2.062.115-5.118.348-9.17.232-4.052.349-7.108.349-9.169a45.95 45.95 0 0 0-.139-3.708c-.14-.641-.209-1.418-.209-2.335 0-.641.058-1.694.174-3.16.116-1.464.174-2.564.174-3.296 0-3.846-1.58-6.021-4.739-6.525-.326 0-.779.126-1.36.377-.582.253-1.104.333-1.568.241-.512-.32-.767-.731-.767-1.236 0-.319.255-1.007.767-2.061 13.522.367 23.419.412 29.692.137 6.366 1.602 10.804 4.166 13.314 7.691zm-8.085.549c-1.07-2.061-2.882-3.457-5.437-4.19-1.58-.412-3.927-.618-7.04-.618-.373 0-1.011-.068-1.917-.206-.907-.137-1.593-.206-2.057-.206-1.627 0-2.765.71-3.416 2.129-.697 7.51-.836 13.439-.418 17.789l.767 1.03h9.479c3.81-.137 6.807-.893 8.991-2.267 1.208-1.923 1.812-4.396 1.812-7.418a24.458 24.458 0 0 0-.764-6.043z"/><path d="M180.96 42.462c-.278 6.152-2.788 11.524-7.527 16.116-2.277 2.25-5.112 3.835-8.503 4.751-2.603.735-5.879 1.148-9.828 1.24-3.346.092-6.691.162-10.037.206-2.324-.182-4.646-.274-6.97-.274s-4.67.093-7.04.274a28.553 28.553 0 0 1-.941-.562c-.303-.187-.453-.445-.453-.773 0-.142.023-.281.069-.422.502-.797 1.461-1.195 2.878-1.195H134.046c1.461 0 2.398-.458 2.81-1.374.64-1.876.959-3.983.959-6.318a40.21 40.21 0 0 0-.279-4.602c.279-3.616.325-8.573.14-14.869-.186-6.295-.14-11.092.139-14.389-.836-.87-2.138-1.488-3.903-1.855-.233 0-.639.103-1.219.309-.582.206-1.035.309-1.359.309-.512 0-.953-.16-1.324-.481-.558-.503-.836-1.03-.836-1.579a.92.92 0 0 1 .279-.687l.976-1.03c.882.092 2.044.068 3.485-.069 1.766-.137 2.881-.206 3.346-.206.882 0 1.649.093 2.301.275 1.068.092 2.253.137 3.555.137 1.068 0 2.694-.069 4.879-.206 2.184-.137 3.81-.206 4.879-.206 4.601 0 8.317.711 11.152 2.135.977-.092 2.149.311 3.52 1.206 1.37.895 2.475 1.343 3.311 1.343 3.67 2.296 6.389 5.625 8.155 9.987 1.53 3.856 2.181 8.126 1.948 12.809zm-10.524 11.025c2.044-4.042 3.067-8.521 3.067-13.437 0-4.915-1.022-9.232-3.067-12.953-3.253-5.787-9.339-8.682-18.262-8.682-1.627 0-3.322.092-5.088.276-.604.322-1.371.987-2.3 1.998l-.279 28.181c-.046 3.401-.024 5.511.07 6.338.185 2.435.79 4.434 1.812 5.994 2.509.185 4.67.276 6.482.276 8.968.001 14.823-2.662 17.565-7.991z"/><path d="M224.816 26.383c-1.118.047-2.48-.777-4.086-2.472-1.607-1.694-2.97-2.587-4.087-2.679-1.258-1.053-3.075-1.809-5.449-2.267a266.32 266.32 0 0 1-6.007-1.03c-.606.274-1.467.412-2.584.412h-2.656c-3.028 0-5.006.771-5.938 2.312-.373 4.67-.559 10.246-.559 16.728l1.609 1.496 8.674-.137c3.17-.412 5.501-1.74 6.994-3.984.233-.962.815-2.29 1.748-3.983l.909.412.28 17.995c-.139.274-.442.596-.906.961-.744-.275-1.255-.961-1.534-2.061a59.512 59.512 0 0 1-.767-2.746c-.791-1.649-2.208-2.839-4.252-3.572a242.838 242.838 0 0 1-5.576-1.305c-1.254.139-2.486.253-3.694.345-1.58.138-2.625.644-3.136 1.515-.373 1.562-.558 3.445-.558 5.65 0 1.333.082 3.331.245 5.994.164 2.665.246 4.617.246 5.856.375 1.608 1.521 2.412 3.441 2.412h2.529c1.264 0 2.153.295 2.669.883.046.169.07.316.07.442 0 .337-.187.568-.558.694-.373.126-.744.23-1.115.315h-3.136c-1.302 0-3.171.046-5.611.138-2.439.09-4.241.137-5.401.137-2.464 0-4.694-.183-6.691-.549-.094-.046-.14-.526-.14-1.443.464-.411 1.068-.617 1.812-.617.325 0 .813.046 1.464.138.65.091 1.115.137 1.394.137 1.068 0 1.812-.503 2.23-1.512l.906-1.992c.045-5.036-.024-11.583-.209-19.642-.233-10.943-.349-17.514-.349-19.712-.418-.824-1.302-1.236-2.649-1.236h-2.509c-1.533 0-2.185-.789-1.951-2.368.882-.481 1.998-.723 3.346-.723.603 0 1.463.058 2.579.171 1.115.116 1.928.172 2.439.172.79 0 1.463-.091 2.021-.274.279-.182.58-.275.906-.275.185 0 .511.093.976.275.464.184.812.274 1.045.274h28.368c1.162.769 1.882 2.238 2.161 4.408.418 2.939.767 4.702 1.045 5.289v1.018z"/></g></svg>