<svg viewBox="0 0 80 80" xmlns="http://www.w3.org/2000/svg" xml:space="preserve" style="fill-rule:evenodd;clip-rule:evenodd;stroke-linejoin:round;stroke-miterlimit:2"><path d="m.573-.025-.005.014a.672.672 0 0 1-.107.009.366.366 0 0 1-.106-.013C.353-.024.358-.031.371-.036c.012-.005.018-.011.018-.016a.026.026 0 0 0-.003-.011L.284-.179c-.012 0-.024.007-.035.021a.185.185 0 0 1-.029.031.216.216 0 0 1-.021.03c-.012.015-.018.026-.018.034 0 .005.002.01.005.014.003.005.011.01.024.017.01.005.015.012.014.021L.209.002a1.768 1.768 0 0 0-.187 0C.012-.008.007-.015.007-.019c0-.003.002-.007.005-.01A.104.104 0 0 1 .07-.04a.855.855 0 0 0 .177-.158l.001-.01c0-.017-.01-.035-.03-.053a.66.66 0 0 1-.046-.045l-.06-.057a.136.136 0 0 0-.075-.036C.029-.401.025-.405.025-.412c0-.005.002-.01.007-.016.005-.005.014-.008.027-.009H.09a.054.054 0 0 0 .015-.004c.01.004.034.004.072.001.031-.003.052.003.065.018 0 .005-.005.01-.014.017-.009.007-.014.014-.014.019 0 .004.002.009.006.014l.041.057c.017.023.036.035.056.036A.283.283 0 0 1 .36-.324c.018-.017.027-.035.026-.052C.381-.385.371-.393.354-.399.337-.405.328-.413.328-.423A.03.03 0 0 1 .33-.432l.018-.013a.139.139 0 0 0 .03.003c.012 0 .03-.002.054-.005a.517.517 0 0 1 .053-.005.14.14 0 0 1 .056.011.032.032 0 0 1 .007.018c0 .017-.015.028-.044.032a.181.181 0 0 0-.096.051L.33-.26a.63.63 0 0 0 .205.22l.022.003a.02.02 0 0 1 .016.012Z" style="fill-rule:nonzero" transform="matrix(66.0002 0 0 66.0002 20.86 54.85)"/></svg>