<svg viewBox="0 0 80 80" xmlns="http://www.w3.org/2000/svg" xml:space="preserve" style="fill-rule:evenodd;clip-rule:evenodd;stroke-linejoin:round;stroke-miterlimit:2"><path d="M.354-.618a.197.197 0 0 1 .019.091.193.193 0 0 1-.032.115c-.039.037-.075.055-.108.055A.124.124 0 0 1 .206-.36c-.023.011-.034.031-.034.059l.003.032.002.032a.07.07 0 0 1-.014.045c-.009.002-.017 0-.022-.005a.025.025 0 0 1-.009-.02.115.115 0 0 0 .011-.054.412.412 0 0 0-.004-.051.413.413 0 0 1-.004-.05c0-.046.021-.069.063-.069l.021.002a.124.124 0 0 1 .035-.014.12.12 0 0 0 .035-.015.104.104 0 0 0 .028-.075.128.128 0 0 0-.009-.048C.295-.624.273-.641.242-.641a.328.328 0 0 0-.057.008.35.35 0 0 1-.058.008.089.089 0 0 1-.058-.02L.068-.667c0-.029.012-.052.035-.067a.292.292 0 0 1 .051-.004c.105 0 .172.04.2.12Zm-.129.534c0 .041-.013.069-.039.083a.084.084 0 0 1-.088-.023C.084-.039.081-.058.088-.08a.082.082 0 0 0 .023-.025c.008-.011.016-.017.025-.019l.052.007c.021.004.033.015.037.033Z" style="fill-rule:nonzero" transform="matrix(66.0002 0 0 66.0002 25.434 64.255)"/></svg>